<!DOCTYPE svg PUBLIC "-//W3C//DTD SVG 1.1//EN" "https://www.w3.org/Graphics/SVG/1.1/DTD/svg11.dtd"><svg xmlns="http://www.w3.org/2000/svg" id="sfn-svg" class="sfn-workflow-graph" width="375" height="442">
    
    
<g transform="translate(12,19.61328125)"><g class="nodes"><g class="node-container" transform="translate(173.51953125,18.25)"><g class="node anchor"><circle class="shape" x="-15.86328125" y="-8.25" r="25.86328125"/><text class="label"><tspan xml:space="preserve" text-anchor="middle" alignment-baseline="central">Start</tspan></text></g></g><g class="node-container" transform="translate(171.9765625,387.30200004577637)"><g class="node anchor"><circle class="shape" x="-12.17578125" y="-8.25" r="22.17578125"/><text class="label"><tspan xml:space="preserve" text-anchor="middle" alignment-baseline="central">End</tspan></text></g></g><g class="node-container" transform="translate(173.51953125,79.75)"><g class="node state Task NotYetStarted"><rect class="shape" rx="5" ry="5" x="-38.875" y="-18.25" width="77.75" height="36.5"/><text class="label"><tspan xml:space="preserve" text-anchor="middle" alignment-baseline="central">GetEmail</tspan></text></g></g><g class="node-container" transform="translate(173.51953125,141.25)"><g class="node state Choice NotYetStarted"><rect class="shape" rx="5" ry="5" x="-59.296875" y="-18.25" width="118.59375" height="36.5"/><text class="label"><tspan xml:space="preserve" text-anchor="middle" alignment-baseline="central">IsValidRequest?</tspan></text></g></g><g class="node-container" transform="translate(236.677734375,202.75)"><g class="node state Task NotYetStarted"><rect class="shape" rx="5" ry="5" x="-85.5546875" y="-18.25" width="171.109375" height="36.5"/><text class="label"><tspan xml:space="preserve" text-anchor="middle" alignment-baseline="central">SendEmailConfirmation</tspan></text></g></g><g class="node-container" transform="translate(45.66015625,325.7760000228882)"><g class="node state Pass NotYetStarted"><rect class="shape" rx="5" ry="5" x="-45.66015625" y="-18.276000022888184" width="91.3203125" height="36.55200004577637"/><text class="label"><tspan xml:space="preserve" text-anchor="middle" alignment-baseline="central">Do nothing</tspan></text></g></g><g class="node-container" transform="translate(236.677734375,264.25)"><g class="node state Choice NotYetStarted"><rect class="shape" rx="5" ry="5" x="-90.453125" y="-18.25" width="180.90625" height="36.5"/><text class="label"><tspan xml:space="preserve" text-anchor="middle" alignment-baseline="central">SubscribeOrUnsubscribe?</tspan></text></g></g><g class="node-container" transform="translate(171.9765625,325.7760000228882)"><g class="node state Task NotYetStarted"><rect class="shape" rx="5" ry="5" x="-40.65625" y="-18.25" width="81.3125" height="36.5"/><text class="label"><tspan xml:space="preserve" text-anchor="middle" alignment-baseline="central">Subscribe</tspan></text></g></g><g class="node-container" transform="translate(301.37890625,325.7760000228882)"><g class="node state Task NotYetStarted"><rect class="shape" rx="5" ry="5" x="-48.74609375" y="-18.25" width="97.4921875" height="36.5"/><text class="label"><tspan xml:space="preserve" text-anchor="middle" alignment-baseline="central">Unsubscribe</tspan></text></g></g></g><g class="edges"><g class="edge"><path class="path" marker-end="url(#arrowhead31)" d="M173.51953125,98L173.51953125,100.08333333333331C173.51953125,102.16666666666666,173.51953125,106.33333333333331,173.51953125,110.49999999999999C173.51953125,114.66666666666666,173.51953125,118.83333333333333,173.51953125,120.91666666666666L173.51953125,123" style="fill: none;"/><defs><marker id="arrowhead31" viewBox="0 0 10 10" refX="9" refY="5" markerUnits="strokeWidth" markerWidth="8" markerHeight="6" orient="auto"><path d="M 0 0 L 10 5 L 0 10 z"/></marker></defs></g><g class="edge"><path class="path" marker-end="url(#arrowhead32)" d="M173.51953125,44.11328125L173.51953125,44.92773437499999C173.51953125,45.7421875,173.51953125,47.37109375,173.51953125,50.26888020833333C173.51953125,53.166666666666664,173.51953125,57.33333333333333,173.51953125,59.416666666666664L173.51953125,61.5" style="fill: none;"/><defs><marker id="arrowhead32" viewBox="0 0 10 10" refX="9" refY="5" markerUnits="strokeWidth" markerWidth="8" markerHeight="6" orient="auto"><path d="M 0 0 L 10 5 L 0 10 z"/></marker></defs></g><g class="edge"><path class="path" marker-end="url(#arrowhead33)" d="M211.0036680640244,159.5L215.28267911585363,161.58333333333331C219.5616901676829,163.66666666666666,228.11971227134146,167.83333333333331,232.3987233231707,172C236.677734375,176.16666666666666,236.677734375,180.33333333333331,236.677734375,182.41666666666666L236.677734375,184.5" style="fill: none;"/><defs><marker id="arrowhead33" viewBox="0 0 10 10" refX="9" refY="5" markerUnits="strokeWidth" markerWidth="8" markerHeight="6" orient="auto"><path d="M 0 0 L 10 5 L 0 10 z"/></marker></defs></g><g class="edge"><path class="path" marker-end="url(#arrowhead34)" d="M114.22265625,155.51081510448492L102.79557291666667,158.25901258707077C91.36848958333333,161.0072100696566,68.51432291666666,166.5036050348283,57.08723958333333,174.37680251741412C45.66015625,182.25,45.66015625,192.5,45.66015624999999,202.74999999999997C45.66015625,213,45.66015625,223.25,45.66015624999999,233.49999999999997C45.66015625,243.75,45.66015625,254,45.66015624999999,264.25C45.66015625,274.5,45.66015625,284.75,45.66015624999999,291.9583333333333C45.66015625,299.16666666666663,45.66015625,303.3333333333333,45.66015624999999,305.41666666666663L45.66015625,307.5" style="fill: none;"/><defs><marker id="arrowhead34" viewBox="0 0 10 10" refX="9" refY="5" markerUnits="strokeWidth" markerWidth="8" markerHeight="6" orient="auto"><path d="M 0 0 L 10 5 L 0 10 z"/></marker></defs></g><g class="edge"><path class="path" marker-end="url(#arrowhead35)" d="M45.66015625,344.05200004577637L45.66015624999999,346.1353333791097C45.66015625,348.218666712443,45.66015625,352.3853333791097,63.121801874354595,358.7194653132693C80.5834474987092,365.0535972474289,115.5067387474184,373.55519444908145,132.968384371773,377.8059930499078L150.43002999612762,382.05679165073406" style="fill: none;"/><defs><marker id="arrowhead35" viewBox="0 0 10 10" refX="9" refY="5" markerUnits="strokeWidth" markerWidth="8" markerHeight="6" orient="auto"><path d="M 0 0 L 10 5 L 0 10 z"/></marker></defs></g><g class="edge"><path class="path" marker-end="url(#arrowhead36)" d="M236.677734375,221L236.677734375,223.0833333333333C236.677734375,225.16666666666663,236.677734375,229.33333333333331,236.677734375,233.5C236.677734375,237.66666666666666,236.677734375,241.83333333333331,236.677734375,243.91666666666666L236.677734375,246" style="fill: none;"/><defs><marker id="arrowhead36" viewBox="0 0 10 10" refX="9" refY="5" markerUnits="strokeWidth" markerWidth="8" markerHeight="6" orient="auto"><path d="M 0 0 L 10 5 L 0 10 z"/></marker></defs></g><g class="edge"><path class="path" marker-end="url(#arrowhead37)" d="M198.2778518800813,282.5L193.89430365006774,284.5833333333333C189.51075542005418,286.66666666666663,180.7436589600271,290.8333333333333,176.36011073001353,295.004333337148C171.9765625,299.1753333409627,171.9765625,303.3506666819254,171.97656249999997,305.4383333524068L171.9765625,307.5260000228882" style="fill: none;"/><defs><marker id="arrowhead37" viewBox="0 0 10 10" refX="9" refY="5" markerUnits="strokeWidth" markerWidth="8" markerHeight="6" orient="auto"><path d="M 0 0 L 10 5 L 0 10 z"/></marker></defs></g><g class="edge"><path class="path" marker-end="url(#arrowhead38)" d="M275.0776168699187,282.5L279.46116509993226,284.5833333333333C283.84471332994576,286.66666666666663,292.6118097899729,290.8333333333333,296.99535801998644,295.004333337148C301.37890625,299.1753333409627,301.37890625,303.3506666819254,301.37890624999994,305.4383333524068L301.37890625,307.5260000228882" style="fill: none;"/><defs><marker id="arrowhead38" viewBox="0 0 10 10" refX="9" refY="5" markerUnits="strokeWidth" markerWidth="8" markerHeight="6" orient="auto"><path d="M 0 0 L 10 5 L 0 10 z"/></marker></defs></g><g class="edge"><path class="path" marker-end="url(#arrowhead39)" d="M171.9765625,344.0260000228882L171.97656249999997,346.1136666933695C171.9765625,348.2013333638509,171.9765625,352.3766667048136,171.97656249999997,355.89336983362836C171.9765625,359.410072962443,171.9765625,362.2681458791097,171.97656249999997,363.69718233744305L171.9765625,365.12621879577637" style="fill: none;"/><defs><marker id="arrowhead39" viewBox="0 0 10 10" refX="9" refY="5" markerUnits="strokeWidth" markerWidth="8" markerHeight="6" orient="auto"><path d="M 0 0 L 10 5 L 0 10 z"/></marker></defs></g><g class="edge"><path class="path" marker-end="url(#arrowhead40)" d="M301.37890625,344.0260000228882L301.37890624999994,346.1136666933695C301.37890625,348.2013333638509,301.37890625,352.3766667048136,283.4076811008747,358.7348524193954C265.4364559517495,365.09303813397713,229.49400565349904,373.63407622217795,211.5227805043738,377.90459526627836L193.55155535524858,382.1751143103788" style="fill: none;"/><defs><marker id="arrowhead40" viewBox="0 0 10 10" refX="9" refY="5" markerUnits="strokeWidth" markerWidth="8" markerHeight="6" orient="auto"><path d="M 0 0 L 10 5 L 0 10 z"/></marker></defs></g></g></g><style xmlns="http://www.w3.org/1999/xhtml">.node &gt; .shape {stroke: #555555;stroke-width: 0.6px;fill: #FFFFFF;} path {stroke: #555;background-color: #555;stroke-width: 1px;} .node.state.NotYetStarted &gt; .shape,.node.state.Container &gt; .shape {stroke-dasharray: 5 2;} .node.state.Failed &gt; .shape,rect.legend.Failed {fill: #DE322F;} .node.state.CaughtError &gt; .shape,rect.legend.CaughtError {fill: #FFA500;} .node.state.Succeeded &gt; .shape,rect.legend.Succeeded {fill: #2BD62E;} .node.state.InProgress &gt; .shape,rect.legend.InProgress {fill: #53c9ed;} .node.state.Cancelled &gt; .shape,rect.legend.Cancelled {fill: #dddddd;} .node.anchor &gt; .shape {fill: #FFDA75;} .node.state.hovered:not(.selected):not(.NotYetStarted) &gt; .shape,.node.selected &gt; .shape {stroke: #555555;stroke-width: 2px;} .node.state.Container.Failed &gt; .shape {fill: #EE9592;} .node.state.Container.CaughtError &gt; .shape {fill: #FFD27F;} .node.state.Container.Succeeded &gt; .shape {fill: #91EA9A;} .node.state.Container.InProgress &gt; .shape {fill :#A9E4F7;} .node.state.Container.Cancelled &gt; .shape {fill: #EEEEEE;} marker {fill: #555555;} .node.anchor,.node.state.NotYetStarted {cursor: default;} .node.state {cursor: pointer;} tspan .label {font-weight: normal;font-size: 12px;text-shadow: none;} </style></svg>